<?xml version="1.0" encoding="UTF-8"?>
<svg id="Layer_4" data-name="Layer 4" xmlns="http://www.w3.org/2000/svg" xmlns:xlink="http://www.w3.org/1999/xlink" viewBox="0 0 695.05 779.67">
  <defs>
    <style>
      .cls-1 {
        fill: #6f995c;
      }

      .cls-2 {
        fill: none;
      }

      .cls-3 {
        clip-path: url(#clippath);
      }
    </style>
    <clipPath id="clippath">
      <circle class="cls-2" cx="347.52" cy="432.14" r="347.52"/>
    </clipPath>
  </defs>
  <circle class="cls-1" cx="347.52" cy="432.14" r="347.52"/>
  <path d="M349.76,84.63c94.93,1.21,171.52,78.53,171.52,173.75s-77.8,173.76-173.76,173.76-173.76,77.8-173.76,173.76,76.59,172.54,171.52,173.75c.75.01,1.49.01,2.24.01s1.49,0,2.24-.01c190.89-1.19,345.28-156.33,345.28-347.51S540.66,85.83,349.76,84.63ZM324,613.02c-9.12-20.88-4.59-32.42-4.59-32.42,0,0,33.41-5.43,44.23,1.74,22.66,15.04,27.39,58.12,27.39,58.12,0,0-56.7-3.81-67.03-27.44Z"/>
  <path d="M290.63,504.04c-16.09-22.98-17.82-159.24-15.17-164.33s6.34-16.06,6.24-18.61-1.97-7.06-4.66-7.66c-7.28-1.64-56.15-4.17-63.79.92-3.42,2.28-4.73,7.94-2.75,10.39s7.74,9.93,9.42,16.49-18.27,164.01-30.18,191.8c-11.91,27.8,116.98-6.03,100.89-29Z"/>
  <path d="M213.45,1.89c-2.85,4.89,11,147.02,11,164.94s-10.08,107.01-14.97,112.3c-4.89,5.29-8.45,12.93-4.28,18.94s75.14,2.85,77.99-1.22,4.02-16-2.04-19.75c-10.18-6.31-8.86-17.61-12.32-30.65-3.46-13.03-5.91-111.18-3.46-126.05,2.44-14.86,10.59-36.04,10.79-45.82S249.49,11.87,231.17,4.13c-18.33-7.74-17.72-2.24-17.72-2.24Z"/>
  <path d="M303.45,286.03s13.8,15.38,43.94,7.92c27.89-6.91,44.21-63.22,44.21-63.22,0,0-58.36-4.07-73.33,20.46-13.24,21.69-14.82,34.85-14.82,34.85Z"/>
  <path d="M204.36,135.28s-11.46-6.44-29.74-4.7c-28.15,2.67-69.14,37.14-69.14,37.14,0,0,54.01,3.06,77.25-12.63,11.5-7.77,21.63-19.81,21.63-19.81Z"/>
  <path d="M202.54,101.73s-3.73-14.15-18.39-25.53c-22.58-17.52-77.67-14.5-77.67-14.5,0,0,37.38,41.25,65.81,43.14,14.08.93,30.25-3.11,30.25-3.11Z"/>
  <g class="cls-3">
    <path d="M72.5,219.67c-38.7,66.45-59.65,131.66-52.82,209.13.24,3.53,1.6,14.33,2.1,18.14.77,5.45,2.15,12.4,3.11,17.88,1.26,5.59,2.73,12,4.14,17.56.55,2.22,3.64,12.39,4.14,14.37.53,1.41,2.34,6.87,2.91,8.46,1.13,3.44,2.71,7.89,4.09,11.14,2.33,6.22,6.45,15.53,9.37,21.66,0,0,1.22,2.66,1.22,2.66,0,0,1.36,2.61,1.36,2.61,1.42,2.62,4.02,7.77,5.42,10.38,2.74,4.83,5.92,10.35,8.81,15.1,3.73,5.84,8.91,13.75,12.98,19.18,21.06,29.28,46.93,54.64,75.99,75.79,2.55,1.78,6.55,4.54,9.2,6.32,1.47.94,3.12,2.28,4.6,3.12,3.58,2.13,10.69,6.83,14.21,8.69,2.41,1.39,7.22,4.07,9.62,5.47,3.58,1.84,8.74,4.44,12.28,6.3,5.02,2.26,9.97,4.69,15.02,6.85,5.67,2.25,12.08,5.07,17.88,7,3,1.05,7.33,2.74,10.34,3.58,25.92,8.43,53.04,13.75,80.23,15.52,56.46,3.97,114.02-8,164.15-34.47,0,0,9.71-5.23,9.71-5.23,2.89-1.82,11.37-6.64,14.15-8.62,4.18-2.85,9.7-6.28,13.69-9.4,2.35-1.81,6.62-4.66,8.93-6.59,0,0,8.66-6.96,8.66-6.96,4.13-3.41,8.53-7.48,12.54-11.03,1.91-1.91,6.08-5.84,8.02-7.75,14.51-14.4,27.68-30.5,39.26-47.42,13.6-20.2,25.07-42.44,33.86-65.23,1.63-4.87,4.14-11.26,5.65-16.19.76-3.09,4.19-13.26,4.76-16.54.61-2.65,2.17-8.49,2.81-11.17.97-4.5,1.89-9.68,2.83-14.17.89-4.75,1.43-9.54,2.22-14.33,3.66-27.13,4.08-54.8,1-82.03-8.71-82.29-49.2-159.08-108-217.04,0,0,.59-.81.59-.81,30.66,16.29,58.93,38.27,83.26,64.55,9.13,9.9,17.81,20.38,25.68,31.3,69.84,96.32,84.43,223,43.89,334.21-52.57,143.53-187.47,241.8-339.97,249.69-5.33.18-13.14.41-18.44.56-2.49.03-15.69-.31-18.45-.34-6.82-.18-15.28-1.04-22.12-1.51-11.55-1.22-25.09-3.23-36.58-5.53-4.13-.63-10.34-2.31-14.44-3.25-9.45-2.26-19.24-5.1-28.47-8.09-2.53-.87-15.14-5.42-17.41-6.23-7.51-3.26-16.4-6.62-23.71-10.3-50.74-23.91-95.75-59.96-130.31-104.07-29.44-37.54-51.29-80.96-64.11-126.82,0,0-.99-3.38-.99-3.38,0,0-.84-3.43-.84-3.43-1.98-7.76-4.67-19.57-5.99-27.42-1.36-6.35-2.19-14.26-3.14-20.69,0,0-.46-3.44-.46-3.44,0,0-.31-3.47-.31-3.47,0,0-1.2-13.82-1.2-13.82-.12-1.14-.15-2.3-.19-3.46-.26-7.66-.75-16.45-.5-24.13.66-86.74,32.25-180.67,93.78-242.88h0Z"/>
  </g>
</svg>