<?xml version="1.0" encoding="UTF-8"?>
<svg id="Layer_1" data-name="Layer 1" xmlns="http://www.w3.org/2000/svg" viewBox="0 0 181.78 4.8" preserveAspectRatio="none">
  <path d="M128.61,4.24c.08,0,.12,0,0,0h0Z"/>
  <path d="M68.97,4.6s-.04,0-.06,0c-.04.05-.08.09-.12.13l.18-.13Z"/>
  <path d="M59.38,4.29s-.04,0-.06-.01c0,.03,0,.06.06.01Z"/>
  <path d="M91.08,4.14c.08,0,.13,0,.16-.02-.05.01-.1.02-.16.02Z"/>
  <path d="M146.18,3.97s-.02,0-.04,0c.03.01.07.02.1.03l-.06-.03Z"/>
  <path d="M145.99,4.06c-.21-.04.06-.07.15-.08-.23-.07-.47-.07-.7-.04,0,.08.45.07.55.12Z"/>
  <path d="M178.07,3.76l-.1.03s.07-.02.1-.03Z"/>
  <path d="M90.13.35s.1-.01.14-.02c-.07,0-.12,0-.14.02Z"/>
  <path d="M173.04,3.68l-.06.12c.05-.05.06-.09.06-.12Z"/>
  <path d="M68.8,4.73l-.07.05s.05-.03.07-.05Z"/>
  <path d="M50.52,4.21s-.02-.07-.05-.09c-.01,0-.02,0-.03,0l.07.09Z"/>
  <path d="M5.83,3.17s.01.03.02.04l.18-.11c-.09.02-.16.04-.2.07Z"/>
  <path d="M38.36,3.68s-.04.03-.04.04c.21.04.76.05,1.46.05l.04-.15-1.46.06Z"/>
  <path d="M25.07.18l1.3.3c-4.16.14-6.1-.16-9.66.08l.2-.07c-.52-.07-.81.61-6.54.07v-.03c-.2.03-.2.09-.6.05l.99.08c-.59.14-1.11.35-1.91.48-.17-.01-.23-.07-.24-.12l-1.94.31-.6-.12c-.59.19-.32.58-1.91.53.6.23-.79.26-.59.39-.08-.03-.26-.07-.41-.1-.94.11-2.72.27-3.16.42,0,0,3.69.4,4.68.6-1.33.06-.35.07-.09.14l.09-.08c.8-.03.8.15,1.2.15,0-.01-.01-.03-.02-.05l-.05.03s-.02-.05.03-.07c0-.04.03-.07.24-.09l-.04.02c.33-.07.91-.12,1.16-.14v.15c.6-.37,3.98-.06,4.77-.13.8.13,1.78-.17,2.78-.1,1.58.05.79.22,1.59.35.99.09-.2-.18.2-.19l1.19.21c-.69.02-.32.11-.19.17,1.03.03,2.65.3,2.96,0,1.39.14,1.39.26,1.98.28-.2-.05-.59-.1-.6-.17.56.13.27-.03.04-.06.85-.13,4.39.55,4.57.22v.06c.2-.25-.12-.49.47-.62l.39.11.59-.11c.4.08.2.15.2.18.97-.11,2.32.02,3.49.06l-1.24-.67c.99.15,2.77.47,2.97.25l.59.23c1.98.43,1.38-.19,2.18-.06l1,.25h-.99c.99.12,1.39.2,2.18.36,0,0,0,0,0,0-.05-.01-.09-.02-.1-.04h.14c.12-.13.64-.21,1.34-.2.99.03,1.77-.15,3.35.11l.39-.25,1.19.15v.2c-1.16-.01-3.36.06-4.85.07l-.03.09c.89,0,1.9-.09,2.48-.07.29.04,1.02.25.49.38l.55-.2c2.96-.02,2.98-.03,6.07.19l-.27-.1c.61-.06,1.22-.12,1.4.05,1.86.03,3.78.16,4.99.41l.26-.24c.39.01.98.37,1.17.04l.84-.1c.54.02.86-.12,1.47.02,0,0,0,0,0,0,0,0,0,0,0,0,.04,0,.08.02.12.03,0,0,0-.01,0-.02,1.21.1-.01-.21,1.38-.08.45.17.49-.3,1.17-.25l.68.34c1.23.19,1.44-.14,3.21-.15.85.12,1.27.41.7.66.78-.31.35-.2,1.38-.35.16.13.05.15-.18.27.92.15.56-.12,1.25-.11.2-.24.43-.62.66-.64l-.27-.07c.73-.13,1.53-.19,2.38-.07l-.03.12.9-.06.06.15,1.29-.05-.18-.04c.3-.02,1.3-.07,1.87,0l-.02.09c1.61.27,2.93-.08,4.81-.11l-.25.18c.64.17.18-.27.94-.18l.04.22c.67-.28.87.06,1.33.17l-.22-.28.87.06c.96.09.59.36.45.5l.65-.22.13.25c.48-.29.48.05,1.32-.11.07.09-.14.15.14.19l1.38-.35-.83.16.1-.36c.87-.28,1.18.04,1.79-.06l-.43.11c1.01-.09,1.07.07,1.64.15-.18-.07-.45-.17-.04-.22.3-.02.16.13.45.17.07-.24.79-.37,1.45-.26,0,.03-.02.07-.07.09.17-.04.25-.1.55-.04l-.17.27.56-.26c.37.07.92-.12.87.06l-.21.05,2.84.06.04.22c.28-.3,1.55.11,1.45-.26.54.2,2.11-.14,1.79.27,1.87.03,2.87-.37,5.14-.17.81.35,3.02.24,4.48.28,2.85-.15,4.68-.28,7.59-.39,1.75.49,4.36-.17,6.25.11l.52-.2c1.25.31,3.16-.07,4.92.23.43-.09.66-.11.76-.12-.08,0-.2-.05-.24-.17.5.09,1.52-.02,1.44.23l-.13.03c-.07.25,1.52-.12,2.08.1l-.31-.27.95.05-.25.05c4.12-.59,5.99.25,9.86-.29-.51.29.76-.15.81.17.98.4,1.81-.09,2.61-.19,0-.02,0-.03.06-.06l1.4.04c-.84.4,1.01-.33.24,0,3.65.3,8.41,0,12.64.13l-.19-.1c1.07.02,2.4-.11,3.22.06.81.16,1.78-.26,2.09-.28.89-.18,1.7.18,1.32.16.95-.05,1.85-.42,3.17-.26.45.34,3.61-.33,3.65.05v-.03c1.71.27,3.31-.19,5.13.06,0,0-.03.03-.1.05l3.71-1.17-1.06-1.28-3.22-1.04-8.72.23-6.96-.41-16.94.14-1.21.29c-3.33-.51-7.6.08-11.18-.29l-.07.25c-1.01.01-.94-.14-1.19-.18-9.4.06-19.08.39-27.54.07-.82-.16-3.3-.07-3.94-.24-2.75.3-5.66.3-8.41.27l.1-.03-1.3.05c-.05-.02-.06-.05-.02-.07-1.46.22-3.76,0-5.55-.09l.1-.03c-10.44-.05-20.14.42-30.49.07-4.82-.41-10.42.15-15.94-.18-1.01-.25-12.19-.06-13.18.05Z"/>
  <path d="M8.61,1.02h.04c0-.11-.07-.07-.04,0Z"/>
  <path d="M31.71,3.38s-.05,0-.07,0l.27.15-.2-.15Z"/>
  <path d="M16.92,3.46c.66.03.7,0,.6-.03-.24,0-.45,0-.6.03Z"/>
  <path d="M3.17,1.9c-.35.02-.22.07-.01.13.36-.05.6-.08.6-.08-.2,0-.39-.04-.59-.05Z"/>
  <path d="M4.6,3.19l-.11.1c.21-.04.2-.07.11-.1Z"/>
</svg>