<?xml version="1.0" encoding="UTF-8"?>
<svg id="Layer_1" data-name="Layer 1" xmlns="http://www.w3.org/2000/svg" viewBox="0 0 4.8 181.78" preserveAspectRatio="none">
  <path d="M.56,128.61c0,.08,0,.12,0,0h0Z"/>
  <path d="M.19,68.97s0-.04,0-.06c-.05-.04-.09-.08-.13-.12l.13.18Z"/>
  <path d="M.5,59.38s0-.04.01-.06c-.03,0-.06,0-.01.06Z"/>
  <path d="M.66,91.08c0,.08,0,.13.02.16-.01-.05-.02-.1-.02-.16Z"/>
  <path d="M.82,146.18s0-.02,0-.04c-.01.03-.02.07-.03.1l.03-.06Z"/>
  <path d="M.74,145.99c.04-.21.07.06.08.15.07-.23.07-.47.04-.7-.08,0-.07.45-.12.55Z"/>
  <path d="M1.04,178.07l-.03-.1s.02.07.03.1Z"/>
  <path d="M4.45,90.13s.01.1.02.14c0-.07,0-.12-.02-.14Z"/>
  <path d="M1.11,173.04l-.12-.06c.05.05.09.06.12.06Z"/>
  <path d="M.06,68.8l-.05-.07s.03.05.05.07Z"/>
  <path d="M.58,50.52s.07-.02.09-.05c0-.01,0-.02,0-.03l-.09.07Z"/>
  <path d="M1.62,5.83s-.03.01-.04.02l.11.18c-.02-.09-.04-.16-.07-.2Z"/>
  <path d="M1.11,38.36s-.03-.04-.04-.04c-.04.21-.05.76-.05,1.46l.15.04-.06-1.46Z"/>
  <path d="M4.62,25.07l-.3,1.3c-.14-4.16.16-6.1-.08-9.66l.07.2c.07-.52-.61-.81-.07-6.54h.03c-.03-.2-.09-.2-.05-.6l-.08.99c-.14-.59-.35-1.11-.48-1.91.01-.17.07-.23.12-.24l-.31-1.94.12-.6c-.19-.59-.58-.32-.53-1.91-.23.6-.26-.79-.39-.59.03-.08.07-.26.1-.41-.11-.94-.27-2.72-.42-3.16,0,0-.4,3.69-.6,4.68-.06-1.33-.07-.35-.14-.09l.08.09c.03.8-.15.8-.15,1.2.01,0,.03-.01.05-.02l-.03-.05s.05-.02.07.03c.04,0,.07.03.09.24l-.02-.04c.07.33.12.91.14,1.16h-.15c.37.6.06,3.98.13,4.77-.13.8.17,1.78.1,2.78-.05,1.58-.22.79-.35,1.59-.09.99.18-.2.19.2l-.21,1.19c-.02-.69-.11-.32-.17-.19-.03,1.03-.3,2.65,0,2.96-.14,1.39-.26,1.39-.28,1.98.05-.2.1-.59.17-.6-.13.56.03.27.06.04.13.85-.55,4.39-.22,4.57h-.06c.25.2.49-.12.62.47l-.11.39.11.59c-.08.4-.15.2-.18.2.11.97-.02,2.32-.06,3.49l.67-1.24c-.15.99-.47,2.77-.25,2.97l-.23.59c-.43,1.98.19,1.38.06,2.18l-.25,1v-.99c-.12.99-.2,1.39-.36,2.18,0,0,0,0,0,0,.01-.05.02-.09.04-.1v.14c.13.12.21.64.2,1.34-.03.99.15,1.77-.11,3.35l.25.39-.15,1.19h-.2c.01-1.16-.06-3.36-.07-4.85l-.09-.03c0,.89.09,1.9.07,2.48-.04.29-.25,1.02-.38.49l.2.55c.02,2.96.03,2.98-.19,6.07l.1-.27c.06.61.12,1.22-.05,1.4-.03,1.86-.16,3.78-.41,4.99l.24.26c-.01.39-.37.98-.04,1.17l.1.84c-.02.54.12.86-.02,1.47,0,0,0,0,0,0,0,0,0,0,0,0,0,.04-.02.08-.03.12,0,0,.01,0,.02,0-.1,1.21.21-.01.08,1.38-.17.45.3.49.25,1.17l-.34.68c-.19,1.23.14,1.44.15,3.21-.12.85-.41,1.27-.66.7.31.78.2.35.35,1.38-.13.16-.15.05-.27-.18-.15.92.12.56.11,1.25.24.2.62.43.64.66l.07-.27c.13.73.19,1.53.07,2.38l-.12-.03.06.9-.15.06.05,1.29.04-.18c.02.3.07,1.3,0,1.87l-.09-.02c-.27,1.61.08,2.93.11,4.81l-.18-.25c-.17.64.27.18.18.94l-.22.04c.28.67-.06.87-.17,1.33l.28-.22-.06.87c-.09.96-.36.59-.5.45l.22.65-.25.13c.29.48-.05.48.11,1.32-.09.07-.15-.14-.19.14l.35,1.38-.16-.83.36.1c.28.87-.04,1.18.06,1.79l-.11-.43c.09,1.01-.07,1.07-.15,1.64.07-.18.17-.45.22-.04.02.3-.13.16-.17.45.24.07.37.79.26,1.45-.03,0-.07-.02-.09-.07.04.17.1.25.04.55l-.27-.17.26.56c-.07.37.12.92-.06.87l-.05-.21-.06,2.84-.22.04c.3.28-.11,1.55.26,1.45-.2.54.14,2.11-.27,1.79-.03,1.87.37,2.87.17,5.14-.35.81-.24,3.02-.28,4.48.15,2.85.28,4.68.39,7.59-.49,1.75.17,4.36-.11,6.25l.2.52c-.31,1.25.07,3.16-.23,4.92.09.43.11.66.12.76,0-.08.05-.2.17-.24-.09.5.02,1.52-.23,1.44l-.03-.13c-.25-.07.12,1.52-.1,2.08l.27-.31-.05.95-.05-.25c.59,4.12-.25,5.99.29,9.86-.29-.51.15.76-.17.81-.4.98.09,1.81.19,2.61.02,0,.03,0,.06.06l-.04,1.4c-.4-.84.33,1.01,0,.24-.3,3.65,0,8.41-.13,12.64l.1-.19c-.02,1.07.11,2.4-.06,3.22-.16.81.26,1.78.28,2.09.18.89-.18,1.7-.16,1.32.05.95.42,1.85.26,3.17-.34.45.33,3.61-.05,3.65h.03c-.27,1.71.19,3.31-.06,5.13,0,0-.03-.03-.05-.1l1.17,3.71,1.28-1.06,1.04-3.22-.23-8.72.41-6.96-.14-16.94-.29-1.21c.51-3.33-.08-7.6.29-11.18l-.25-.07c-.01-1.01.14-.94.18-1.19-.06-9.4-.39-19.08-.07-27.54.16-.82.07-3.3.24-3.94-.3-2.75-.3-5.66-.27-8.41l.03.1-.05-1.3c.02-.05.05-.06.07-.02-.22-1.46,0-3.76.09-5.55l.03.1c.05-10.44-.42-20.14-.07-30.49.41-4.82-.15-10.42.18-15.94.25-1.01.06-12.19-.05-13.18Z"/>
  <path d="M3.77,8.61v.04c.11,0,.07-.07,0-.04Z"/>
  <path d="M1.42,31.71s0-.05,0-.07l-.15.27.15-.2Z"/>
  <path d="M1.33,16.92c-.03.66,0,.7.03.6,0-.24,0-.45-.03-.6Z"/>
  <path d="M2.9,3.17c-.02-.35-.07-.22-.13-.01.05.36.08.6.08.6,0-.2.04-.39.05-.59Z"/>
  <path d="M1.6,4.6l-.1-.11c.04.21.07.2.1.11Z"/>
</svg>