<?xml version="1.0" encoding="UTF-8"?>
<svg id="Layer_1" data-name="Layer 1" xmlns="http://www.w3.org/2000/svg" viewBox="0 0 512 512">
  <defs>
    <style>
      .cls-1 {
        fill-rule: evenodd;
      }
    </style>
  </defs>
  <path class="cls-1" d="M257.65,0c69.93.89,126.35,57.84,126.35,127.99s-57.31,128-128,128-128,57.3-128,128,56.41,127.1,126.35,127.99c.55.01,1.1.01,1.65.01s1.1,0,1.65-.01c140.62-.88,254.35-115.16,254.35-255.99S398.27.89,257.65,0ZM256,416c-17.68,0-32-14.33-32-32s14.32-32,32-32,32,14.32,32,32-14.33,32-32,32Z"/>
  <circle cx="256" cy="128" r="32"/>
</svg>