<?xml version="1.0" encoding="UTF-8"?>
<svg id="svg8" xmlns="http://www.w3.org/2000/svg" xmlns:xlink="http://www.w3.org/1999/xlink" viewBox="0 0 229.98 119.15">
  <defs>
    <style>
      .cls-1 {
        fill: none;
      }

      .cls-2 {
        fill: url(#radial-gradient);
      }

      .cls-3 {
        clip-path: url(#clippath);
      }
    </style>
    <clipPath id="clippath">
      <rect class="cls-1" width="229.98" height="119.15"/>
    </clipPath>
    <radialGradient id="radial-gradient" cx="-840.74" cy="653.86" fx="-840.74" fy="653.86" r="1" gradientTransform="translate(76530.68 59490.09) scale(90.89 -90.89)" gradientUnits="userSpaceOnUse">
      <stop offset="0" stop-color="#a6d71c"/>
      <stop offset=".57" stop-color="#37983c"/>
      <stop offset="1" stop-color="#37983c"/>
    </radialGradient>
  </defs>
  <g id="g150">
    <g id="g152">
      <g class="cls-3">
        <g id="g154">
          <path id="path168" class="cls-2" d="M212.84,3.95c-.33.25-.16.23-.43.42h0c-1.07.75-1.88,1.51-2.75,2.33h0c-6.13,5.69-11.72,12.36-16.51,17.99h0c-1.82,2.15-3.95,4.58-5.93,6.99h0c-1.19,1.45-3.24,4.35-3.8,4.65h0c-.65.35-1.1,1.36-1.24,1.64h0s0,.03-.03.06h0s.02-.03.03-.06h0c0-.06-.34.13-.46.26h0c-4.24,4.87-8.53,9.9-12.69,13.96h0c-1.73,1.16-2.66,2.23-4.44,3.37h0c-1.48.98-3.57,2.58-6.15,1.92h0c-2.65-.69-3.56-5.17-3.8-9.32h0c-.53-9.14,1.14-16.3,2.33-23.9h0c.55-3.56,2.09-9.15.21-11h0c-1.82-1.79-7-.44-9.73.62h0c-3.17,1.24-6.01,2.8-8.25,4.03h0c-6.28,3.41-10.08,5.8-14.82,8.89h0c-4.49,2.92-8.72,5.63-12.69,8.45h0c-.74.53-4.66,2.47-5.09,3.6h0c-.08.25-.14.16-.21.08h0c-.05-.06-.11-.12-.19-.08h0c-1,.51-1.92,1.29-2.77,1.92h0c-12,8.52-22.64,16.17-34.69,24.73h0c-8.47,6.04-17.77,12.19-27.09,17.99h0c-.57.38-.85.88-1.48.85h0c-1.68,1.31-4.82,2.18-5.92,3.38h0c-.47-.15-1.2.08-1.98.32h0c-1.2.36-2.54.72-3.3-.32h0c.17-2.2,1.86-3.94,3.18-5.49h0c3.35-3.9,7.51-7.19,11.02-10.58h0c.45-.46,1.27-1.5,1.25-1.5h0s.13.02.23.06h0c.21.08.47.15.41-.27h0c5.97-5.02,10.65-9.24,16.28-13.95h0c8.55-7.15,17.44-14.44,25.61-21.59h0c.79-.69,2.21-1.26,2.33-2.54h0c.96.45,1.41-.83,1.89-1.28h0c3.45-3.02,6.87-5.94,9.74-9.3h0c1.13-1.33,2.68-2.89,2.33-4.87h0c-1.57-1.33-5.34.54-6.12.85h0c-.67.26-1.45.34-2.12.63h0c-1.36.61-2.64,1.53-4.01,2.34h0c-7.93,4.53-15.67,10.5-21.8,15.65h0c-8.58,7.17-18.04,15.28-26.44,23.68h0c-10.22,10.23-20.14,20.24-29.62,32.39h0c-1.82,2.33-3.51,4.87-4.64,6.35h0c-1.76,2.23-3.38,4.88-4.89,7.82h0c-1.38,2.68-3.58,6.89-2.54,9.74h0c.72,2.03,4.25,3.14,6.98,3.17h0c6.3.09,12.42-3.17,17.55-5.92h0c2.49-1.32,4.76-2.86,6.99-4.23h0c1.97-1.2,3.89-2.24,5.49-3.38h0c.43-.28,1.43-.54,1.27-1.28h0c.88.22,1.72-.64,2.33-1.06h0c5.43-3.69,10.65-7.41,15.88-11.2h0c.86-.62,1.93-1.73,2.33-1.91h0c.68-.29,1.18-.86,1.68-1.26h0c4.19-3.17,9.88-6.84,12.5-9.52h0c.74.07,1.67-.86,2.54-1.48h0c.86-.64,1.92-1.28,2.09-1.89h0c1.1.05,1.64-.99,2.32-1.49h0c2.7-1.92,5.33-3.77,7.85-5.51h0c4.92-3.44,10.29-6.83,15.44-9.73h0c1.76-.99,3.68-1.92,5.92-2.96h0c3.66-1.71,8.8-4.43,13.56-4.25h0c5.26.25,8.21,3.32,7.61,9.1h0c-.55,5.24-3.86,10.71-6.14,14.83h0c-5.52,9.88-12.42,19.71-17.14,28.77h0c-1.3,2.52-4.81,8.7-2.96,12.05h0c.85,1.55,3.88,2.01,7.21,1.72h0c5.12-.52,10.77-2.8,15.44-4.89h0c4.55-2.04,9.11-4.47,12.9-6.36h0c9.07-4.49,17.2-9.7,25.39-15.43h0c14.1-9.88,27.08-20.91,38.08-33.42h0c1.62-1.88,3.59-4.96,4.23-5.32h0c.25-.12.25-.21.42-.41h0c6.48-7.66,13.24-18.13,17.15-28.77h0c1.99-5.43,4.03-13.47,1.48-19.05h0c-.97-2.08-2.9-4.24-4.87-4.66h0c-.45-.09-.9-.14-1.35-.14h0c-3.19,0-6.11,2.24-8.36,3.95"/>
        </g>
      </g>
    </g>
  </g>
</svg>