<?xml version="1.0" encoding="UTF-8"?>
<svg id="Layer_1" data-name="Layer 1" xmlns="http://www.w3.org/2000/svg" viewBox="0 0 512 512">
  <defs>
    <style>
      .cls-1 {
        fill: #fff;
      }
    </style>
  </defs>
  <g>
    <path class="cls-1" d="M256,511.5c-68.25,0-132.41-26.58-180.67-74.83C27.08,388.41.5,324.25.5,256S27.08,123.59,75.33,75.33C123.59,27.08,187.75.5,256,.5s132.41,26.58,180.67,74.83c48.26,48.26,74.83,112.42,74.83,180.67s-26.58,132.41-74.83,180.67c-48.26,48.26-112.42,74.83-180.67,74.83Z"/>
    <path d="M256,1c34.43,0,67.82,6.74,99.26,20.04,30.37,12.84,57.64,31.23,81.05,54.65,23.42,23.42,41.81,50.69,54.65,81.06,13.3,31.44,20.04,64.83,20.04,99.26s-6.74,67.82-20.04,99.26c-12.84,30.37-31.23,57.64-54.65,81.05s-50.69,41.81-81.05,54.65c-31.44,13.3-64.83,20.04-99.26,20.04s-67.82-6.74-99.26-20.04c-30.37-12.84-57.64-31.23-81.06-54.65-23.42-23.42-41.81-50.69-54.65-81.05C7.74,323.82,1,290.43,1,256s6.74-67.82,20.04-99.26c12.84-30.37,31.23-57.64,54.65-81.06,23.42-23.42,50.69-41.81,81.06-54.65C188.18,7.74,221.57,1,256,1M256,0C114.62,0,0,114.62,0,256s114.62,256,256,256,256-114.62,256-256S397.38,0,256,0h0Z"/>
  </g>
  <g>
    <path class="cls-1" d="M256,255.5c-70.3,0-127.5-57.2-127.5-127.5S185.7.5,256,.5s127.5,57.2,127.5,127.5-57.2,127.5-127.5,127.5Z"/>
    <path d="M256,1c33.92,0,65.82,13.21,89.8,37.2,23.99,23.99,37.2,55.88,37.2,89.8s-13.21,65.82-37.2,89.8c-23.99,23.99-55.88,37.2-89.8,37.2s-65.82-13.21-89.8-37.2-37.2-55.88-37.2-89.8,13.21-65.82,37.2-89.8S222.08,1,256,1M256,0c-70.69,0-128,57.31-128,128s57.31,128,128,128,128-57.31,128-128S326.69,0,256,0h0Z"/>
  </g>
  <g>
    <path class="cls-1" d="M256,511.5c-70.3,0-127.5-57.2-127.5-127.5s57.2-127.5,127.5-127.5,127.5,57.2,127.5,127.5-57.2,127.5-127.5,127.5Z"/>
    <path d="M256,257c33.92,0,65.82,13.21,89.8,37.2,23.99,23.99,37.2,55.88,37.2,89.8s-13.21,65.82-37.2,89.8c-23.99,23.99-55.88,37.2-89.8,37.2s-65.82-13.21-89.8-37.2c-23.99-23.99-37.2-55.88-37.2-89.8s13.21-65.82,37.2-89.8c23.99-23.99,55.88-37.2,89.8-37.2M256,256c-70.69,0-128,57.31-128,128s57.31,128,128,128,128-57.31,128-128-57.31-128-128-128h0Z"/>
  </g>
  <g>
    <path class="cls-1" d="M256,415.5c-17.37,0-31.5-14.13-31.5-31.5s14.13-31.5,31.5-31.5,31.5,14.13,31.5,31.5-14.13,31.5-31.5,31.5Z"/>
    <path d="M256,353c17.09,0,31,13.91,31,31s-13.91,31-31,31-31-13.91-31-31,13.91-31,31-31M256,352c-17.67,0-32,14.33-32,32s14.33,32,32,32,32-14.33,32-32-14.33-32-32-32h0Z"/>
  </g>
  <g>
    <path class="cls-1" d="M256,159.5c-17.37,0-31.5-14.13-31.5-31.5s14.13-31.5,31.5-31.5,31.5,14.13,31.5,31.5-14.13,31.5-31.5,31.5Z"/>
    <path d="M256,97c17.09,0,31,13.91,31,31s-13.91,31-31,31-31-13.91-31-31,13.91-31,31-31M256,96c-17.67,0-32,14.33-32,32s14.33,32,32,32,32-14.33,32-32-14.33-32-32-32h0Z"/>
  </g>
</svg>